<?xml version="1.0" encoding="utf-8"?>
<!-- Generator: Adobe Illustrator 16.0.0, SVG Export Plug-In . SVG Version: 6.00 Build 0)  -->
<!DOCTYPE svg PUBLIC "-//W3C//DTD SVG 1.0//EN" "http://www.w3.org/TR/2001/REC-SVG-20010904/DTD/svg10.dtd">
<svg version="1.0" id="Layer_1" xmlns="http://www.w3.org/2000/svg" xmlns:xlink="http://www.w3.org/1999/xlink" x="0px" y="0px"
	 width="1500px" height="1500px" viewBox="0 0 1500 1500" enable-background="new 0 0 1500 1500" xml:space="preserve">
<g id="TOP_x2F_BOTT">
	
		<path fill-rule="evenodd" clip-rule="evenodd" stroke="#000000" stroke-width="4" stroke-linecap="round" stroke-linejoin="round" stroke-miterlimit="10" d="
		M1009.209,724.093c-2.774-28.559-9.899-56.033-21.621-82.46c-15.258-34.383-36.999-63.842-64.822-88.763
		c-32.124-28.772-69.457-48.165-111.331-58.488c-13.477-3.322-27.231-5.222-41.145-6.39c-12.519-1.051-24.981-0.207-37.456-0.729
		h-0.468c-0.996,0.134-1.599,0.989-2.808,1.01c-17.25,0.299-34.063,3.699-50.519,8.445c-39.851,11.494-75.208,31.096-105.86,59.271
		c-19.36,17.793-35.65,38.051-48.904,60.542c-14.193,24.082-24.146,50.065-29.619,77.596c-2.455,12.353-3.854,24.831-4.968,37.409
		c-1.172,13.204-0.759,26.303,0.404,39.322c3.243,36.273,13.665,70.543,31.245,102.483c15.031,27.311,34.514,51.163,58.052,71.556
		c13.778,11.938,28.822,22.143,44.815,31.051c21.58,12.021,44.686,19.969,68.443,25.865c10.609,2.633,21.607,4.246,32.676,5.18
		c7.977,0.672,15.975,0.868,23.891,0.918c11.064,0.066,22.159-0.398,33.254-1.904c16.582-2.253,32.774-5.787,48.642-10.969
		c27.724-9.056,53.068-22.673,76.269-40.266c24.097-18.268,44.455-40.043,60.873-65.488c17.754-27.527,30.264-57.162,36.519-89.391
		c2.405-12.389,3.741-24.854,4.922-37.42C1010.902,749.566,1010.439,736.762,1009.209,724.093z M860.434,769.902
		c-4.509,22.523-14.73,42.397-31.269,58.455c-18.334,17.798-40.125,28.717-65.895,31.591c-10.401,1.159-20.771,1.43-30.872-0.343
		c-22.409-3.934-42.289-13.386-59.054-29.241c-21.62-20.448-32.819-45.661-35.461-74.941c-0.849-9.404-0.158-18.937,1.952-28.043
		c10.283-44.344,37.165-73.622,80.848-87.019c8.172-2.507,16.716-3.327,25.254-3.805h0.468c7.839-0.185,15.746,0.039,23.375,1.533
		c21.211,4.15,40.213,13.084,56.186,27.947c22.45,20.887,34.037,46.91,36.483,77.225
		C863.17,752.227,862.174,761.219,860.434,769.902z"/>
	
		<path id="OBL" fill-rule="evenodd" clip-rule="evenodd" stroke="#000000" stroke-width="4" stroke-linecap="round" stroke-linejoin="round" stroke-miterlimit="10" d="
		M687.914,1122.768c-6.369-1.406-12.859-2.273-19.176-3.789c-36.626-8.797-71.665-21.678-104.418-40.574
		c-23.477-13.545-45.395-29.128-65.539-47.266c-4.188-3.771-7.883-8.211-13.053-10.822l-5.506,4.793
		c-16.093,15.732-31.314,32.334-46.989,48.482c-5.987,6.165-11.54,12.932-18.306,18.154c-6.555,5.061-10.382,12.41-16.681,17.533
		c-0.569,0.463-0.657,1.518-0.97,2.297l0.952,1.391c11.69,12.479,24.979,23.131,38.327,33.751
		c30.377,24.167,63.236,44.276,98.324,60.773c19.748,9.284,40.026,17.335,60.855,23.804c24.037,7.465,48.338,14.021,73.448,16.941
		c4.222,0.488,5.456-0.74,6.141-5.144c0.688-4.446,0.313-9.188,3.205-13.124c0.864-1.176,0.504-2.453,0.038-3.74
		c-0.494-1.369-0.46-2.674-0.133-4.227c1.073-5.089,1.8-10.258,2.422-15.425c1.359-11.262,3.24-22.452,4.865-33.669
		c2.104-14.518,4.662-28.968,6.53-43.531C692.78,1125.268,691.705,1123.605,687.914,1122.768z M530.996,1097.992
		c-1.568,17.342-17.424,28.148-32.66,24.954c-9.298-1.95-22-10.817-21.924-26.813c0.066-14.217,9.942-24.14,21.503-26.594
		c1.688-0.357,3.474-0.381,5.13-1.02h0.469c1.615,0.028,3.031,0.838,4.67,1.018C521.158,1070.953,532.23,1084.333,530.996,1097.992z
		 M633.127,1149.951c-0.609,16.539-14.377,27.514-30.399,24.348c-18.205-3.598-26.481-24.932-15.896-39.78
		c7.53-10.567,17.638-12.768,27.545-10.106c13.371,3.592,19.69,14.721,18.773,24.135l0.468,0.469
		C633.149,1149.328,633.139,1149.646,633.127,1149.951z"/>
	
		<path id="OBR" fill-rule="evenodd" clip-rule="evenodd" stroke="#000000" stroke-width="4" stroke-linecap="round" stroke-linejoin="round" stroke-miterlimit="10" d="
		M1096.927,1104.568c-4.597-4.309-8.461-9.29-12.899-13.773c-19.638-19.84-38.531-40.408-57.794-60.614
		c-3.428-3.593-6.601-7.563-10.945-9.952c-2.379,0.773-3.838,2.35-5.411,3.817c-7.852,7.318-15.873,14.432-24.296,21.108
		c-25.503,20.211-52.983,36.99-82.811,50.165c-28.025,12.378-56.918,21.442-87.088,26.642c-4.286,0.738-6.349,1.879-5.227,7.879
		c1.652,8.845,2.886,17.771,4.274,26.664c1.729,11.074,3.457,22.148,5.142,33.23c1.137,7.479,2.341,14.956,3.234,22.468
		c0.665,5.579,3.486,11.068,1.011,16.852c-0.032,0.076,0.311,0.286,0.439,0.462c3.114,4.164,2.959,9.309,4.274,14.02
		c0.791,2.833,2.124,4.369,6.047,3.947c12.404-1.328,24.416-4.373,36.478-7.236c35.071-8.324,68.684-20.822,101.057-36.551
		c21.981-10.678,43.058-23.017,63.229-36.875c21.838-15,42.407-31.559,61.74-49.654l4.705-5.59
		C1101.119,1108.688,1099.068,1106.575,1096.927,1104.568z M911.987,1157.879c-3.51,10.847-16.661,20.262-30.305,16.324
		c-15.768-4.551-22.263-17.746-18.592-32.168c2.546-9.99,9.964-15.843,19.969-18.291h0.469c1.559,0,3.12,0.022,4.682-0.004
		C904.883,1123.456,917.814,1139.856,911.987,1157.879z M989.765,1121.428c-19.664,0.492-31.134-20.113-23.004-36.096
		c4.6-9.043,11.804-13.526,21.601-14.473h0.466c11.259,0.354,19.532,5.412,23.821,15.934
		C1019.123,1102.685,1008.638,1120.953,989.765,1121.428z"/>
	
		<path id="OTOP" fill-rule="evenodd" clip-rule="evenodd" stroke="#000000" stroke-width="4" stroke-linecap="round" stroke-linejoin="round" stroke-miterlimit="10" d="
		M1185.318,440.047c-23.449-33.251-50.561-63.309-80.95-90.31c-27.105-24.083-56.405-45.202-87.899-63.296
		c-37.626-21.617-77.191-38.514-118.884-50.545c-15.621-4.508-31.395-8.436-47.32-11.45c-13.585-2.569-27.311-4.61-41.136-5.938
		c-14.027-1.35-28.046-2.246-42.12-2.938c-9.062-0.445-18.179-1.195-27.138-0.475c-12.637,1.019-25.303,1.238-37.945,2.378
		c-35.182,3.175-69.59,9.868-103.408,19.878c-20.912,6.19-41.303,13.762-61.334,22.404c-21.338,9.204-41.867,19.934-61.719,31.938
		c-19.392,11.726-38.13,24.451-55.726,38.788c-5.402,4.401-11.391,8.156-15.442,14.041l-7.049,4.648
		c-16.713,14.81-32.399,30.63-47.232,47.306c-11.965,13.452-22.925,27.718-33.656,42.147c-4.023,5.41-7.537,11.197-11.276,16.815
		c-2.792,4.192-2.743,5.177,1.423,7.925c9.607,6.338,19.232,12.659,29.064,18.637l10.723,7.08
		c6.23,3.289,11.823,7.553,17.732,11.323c22.834,14.572,45.584,29.278,68.35,43.958c20.291,13.088,40.576,26.184,60.832,39.324
		c5.221,3.389,5.33,3.199,9.43-1.84c5.615-6.905,10.564-14.294,16.209-21.197c17.514-21.415,37.418-40.152,60.012-56.074
		c16.932-11.932,34.805-22.242,53.852-30.352c20.479-8.719,41.685-15.227,63.617-19.268c15.174-2.797,30.494-4.379,45.872-5.039
		c15.34-0.66,30.611,0.793,45.869,2.623c15.085,1.811,29.892,4.846,44.435,9.04c40.74,11.749,77.396,31.382,109.954,58.491
		c21.05,17.525,38.83,38.113,54.853,60.284l4.626,5.655c1.822,0.035,3.226-0.928,4.685-1.858
		c25.154-16.013,50.101-32.343,75.29-48.3c14.104-8.938,28.271-17.818,42.079-27.193c13.55-9.201,28.022-16.914,41.291-26.521
		c10.201-7.386,21.615-12.987,31.318-21.108l0.958-0.909C1195.306,452.322,1189.824,446.434,1185.318,440.047z M730.908,240.119
		c4.584-5.642,10.631-7.985,17.369-9.318h0.469c9.094,0.66,16.47,4.092,21.597,12.123c4.846,7.59,3.964,20.188-1.816,27.29
		c-5.622,6.911-16.317,11.631-26.803,7.858C725.828,272.355,720.647,252.744,730.908,240.119z M406.193,355.309
		c1.119-1.389,2.553-2.523,3.252-4.232l0.468-0.467c1.348,0.129,2.187-0.932,3.284-1.387c6.039-2.503,12.432-3.592,18.678-1.776
		c9.948,2.89,18.541,12.469,17.979,25.165c-0.688,15.512-15.226,27.297-31.938,22.302
		C399.823,389.508,395.746,368.266,406.193,355.309z M543.721,431.517c-19.854,14.607-39.618,29.339-56.998,46.911
		c-7.682,7.768-15.568,15.403-22.064,24.273c-0.387,0.527-0.945,0.924-1.39,1.413c-3.642,4.021-4.282,4.22-8.405,0.905
		c-8.81-7.084-17.541-14.268-26.217-21.516c-7.557-6.313-15.387-12.299-22.53-19.116l-0.416-0.991
		c0.481-1.852,0.87-3.649,2.308-5.179c7.404-7.89,14.497-16.078,22.068-23.798c19.927-20.317,41.779-38.406,65.096-54.677
		c3.994-2.788,7.577-6.809,13.021-7.14l3.56,4.34c10.756,15.596,20.801,31.682,31.039,47.631c1.082,1.688,2.204,3.468,2.374,5.595
		L543.721,431.517z M923.299,402.085c-0.393,0.967-0.92,1.878-1.395,2.812c-4.992,9.828-9.967,19.665-14.985,29.479
		c-1.781,3.479-3.404,7.032-5.546,10.339c-1.4,2.156-2.936,2.687-5.209,1.838c-4.459-1.662-8.73-3.792-13.055-5.73
		c-37.86-16.967-77.763-25.079-118.931-27.336c-10.854-0.597-21.808-0.248-32.767,0.534c-15.581,1.113-31,2.872-46.318,5.836
		c-22.912,4.433-44.972,11.526-66.494,20.508c-5.613,2.343-10.64,6.101-16.807,7.12l-3.674-4.297
		c-0.305-0.251-0.662-1.18-0.975-1.804c-6.282-12.614-12.511-25.257-18.752-37.892c-0.953-1.928-2.029-3.815-1.871-6.084
		l5.158-4.201c0.071-0.078,0.328,0.043,0.453-0.018c17.361-8.502,35.401-15.4,53.865-20.912
		c23.061-6.887,46.553-11.926,70.61-14.352c10.765-1.086,21.546-2.1,32.314-2.488c21.13-0.762,42.195,0.622,63.192,3.476
		c10.667,1.448,21.311,3.015,31.784,5.356c21.088,4.716,41.771,10.828,61.831,19.02c8.355,3.414,16.614,7.006,24.744,10.897
		C924.714,396.215,925.054,397.731,923.299,402.085z M948.556,351.53c-4.397,8.409-8.136,17.147-12.999,25.333
		c-1.734,2.922-3.407,3.255-6.173,1.844c-23.01-11.732-47.165-20.441-72.064-27.16c-17.232-4.651-34.693-8.014-52.395-10.438
		c-12.152-1.666-24.352-2.968-36.533-3.401c-18.552-0.663-37.133-0.403-55.698,1.518c-15.401,1.593-30.705,3.573-45.842,6.731
		c-26.197,5.463-51.717,13.156-76.288,23.844c-7.626,3.32-15.224,6.703-23.292,10.259c-5.488-8.944-10.158-18.129-13.986-27.645
		l-1.568-4.614c3.176-3.477,7.611-4.676,11.688-6.583c20.414-9.56,41.523-17.231,63.197-23.353
		c19.061-5.383,38.37-9.475,58.002-12.357c13.707-2.012,27.469-3.777,41.218-4.256c18.216-0.634,36.494-1.044,54.761,0.526
		c9.847,0.847,19.658,1.816,29.481,2.88c15.328,1.66,30.404,4.658,45.363,8.141c20.742,4.828,41.021,11.344,60.835,19.161
		c9.861,3.891,19.652,8.034,29.057,13.003C948.107,346.438,950.369,348.061,948.556,351.53z M1092.107,466.972
		c-15.1,13.185-30.735,25.758-46.189,38.537c-1.213,1.002-2.789,1.278-4.869,1.729c-4.901-3.827-8.842-9.428-13.277-14.444
		c-19.813-22.412-42.768-41.143-67.031-58.4c-5.692-4.048-5.903-4.646-2.329-10.307c10.072-15.954,20.675-31.569,30.454-47.715
		c2.76-4.555,4.931-4.916,9.311-1.877c20.657,14.334,40.731,29.39,59.013,46.748c12.829,12.18,25.277,24.693,36.495,38.393
		c0.832,1.015,1.471,2.063,1.852,3.294L1092.107,466.972z M1077.737,402.203c-8.786-0.826-15.155-5.113-19.011-12.371
		c-4.008-7.547-3.841-15.67,0.762-23.316c3.961-6.571,10.225-9.531,17.323-11.229h0.469c15.478-0.65,25.137,11.121,25.752,22.465
		C1103.732,390.693,1092.585,403.603,1077.737,402.203z"/>
</g>
</svg>
