<?xml version="1.0" encoding="utf-8"?>
<!-- Generator: Adobe Illustrator 16.0.0, SVG Export Plug-In . SVG Version: 6.00 Build 0)  -->
<!DOCTYPE svg PUBLIC "-//W3C//DTD SVG 1.0//EN" "http://www.w3.org/TR/2001/REC-SVG-20010904/DTD/svg10.dtd">
<svg version="1.0" id="Layer_1" xmlns="http://www.w3.org/2000/svg" xmlns:xlink="http://www.w3.org/1999/xlink" x="0px" y="0px"
	 width="1500px" height="1500px" viewBox="0 0 1500 1500" enable-background="new 0 0 1500 1500" xml:space="preserve">
<g id="WINGS">
	
		<path id="WL" fill-rule="evenodd" clip-rule="evenodd" stroke="#000000" stroke-width="4" stroke-linecap="round" stroke-linejoin="round" stroke-miterlimit="10" d="
		M201.115,1051.064c-20.234,9.914-40.6,19.572-60.77,29.625c-1.625,0.809-3.269,1.535-5.148,1.402l-3.736-3.756
		c-0.779-0.547-0.947-1.607-1.326-2.37c-10.664-21.524-21.197-43.118-30.03-65.481C80.51,960.87,66.131,909.864,58.303,857.006
		c-2.537-17.133-4.605-34.306-6.277-51.514c-1.268-13.05-1.644-26.203-2.34-39.307c-1.291-24.363,1.107-48.679,2.385-72.992
		c0.203-3.873,0.174-7.875,0.854-11.691c1.302-7.303,1.646-14.699,2.718-22.014c0.914-6.242,1.867-12.48,2.802-18.719
		c0.448-2.996,2.524-4.258,5.132-3.668c6.197,1.406,12.506,2.049,18.745,3.15c10.733,1.893,21.507,3.568,32.288,5.164
		c6.548,0.969,13.025,2.32,19.643,2.944c4.553,0.431,5.227,1.823,4.683,6.446c-1.541,13.106-3.327,26.189-4.6,39.321
		c-0.891,9.175-1.7,18.437-1.755,27.606c-0.145,25.117-1.033,50.252,1.514,75.361c1.232,12.174,2.289,24.351,3.822,36.5
		c1.968,15.577,4.791,30.977,8.027,46.324c5.571,26.399,12.887,52.299,22.025,77.681c10.082,27.995,21.658,55.333,35.999,81.45
		c1.43,2.603,3.117,5.195,2.833,8.409L201.115,1051.064z"/>
	
		<path id="WR" fill-rule="evenodd" clip-rule="evenodd" stroke="#000000" stroke-width="4" stroke-linecap="round" stroke-linejoin="round" stroke-miterlimit="10" d="
		M1370.676,648.01c15.297-2.447,30.578-4.984,45.9-7.261c6.57-0.976,13.102-2.218,19.664-3.235c3.986-0.621,5.953,0.985,6.545,5.127
		c1.904,13.22,3.773,26.432,4.799,39.771c0.621,8.111,1.207,16.23,1.883,24.332c1.342,16.066,1.066,32.15,1.123,48.216
		c0.035,10.284,0.365,20.637-0.457,30.876c-1.055,13.115-1.844,26.253-3.387,39.349c-1.289,10.911-2.426,21.866-4.07,32.718
		c-2.357,15.543-5.303,31.008-8.797,46.344c-8.576,37.592-20.068,74.268-34.609,109.988c-8.854,21.75-18.881,42.945-29.971,63.639
		c-2.656,4.961-3.469,5.199-8.408,2.81c-20.284-9.814-40.558-19.657-60.846-29.47c-2.259-1.093-4.371-2.354-6.281-4.443
		c2.563-8.141,7.271-15.453,11.083-23.119c22.72-45.664,39.261-93.414,50.042-143.248c3.258-15.064,5.914-30.232,8.152-45.441
		c1.434-9.729,2.266-19.607,3.156-29.441c2.074-22.91,3.014-45.837,2.58-68.811c-0.246-12.955-0.609-25.958-1.957-38.828
		c-1.506-14.383-2.52-28.857-5.408-43.084c-0.266-1.318,0.256-2.797,0.414-4.201L1370.676,648.01z"/>
	
		<path id="CENTER" fill-rule="evenodd" clip-rule="evenodd" fill="#010101" stroke="#000000" stroke-width="4" stroke-linecap="round" stroke-linejoin="round" stroke-miterlimit="10" d="
		M725.861,749.73c0,13.949,11.307,25.256,25.254,25.256c13.945,0,25.251-11.307,25.251-25.256c0-13.945-11.306-25.252-25.251-25.252
		C737.168,724.479,725.861,735.785,725.861,749.73z"/>
</g>
</svg>
