<?xml version="1.0" encoding="utf-8"?>
<!-- Generator: Adobe Illustrator 16.0.0, SVG Export Plug-In . SVG Version: 6.00 Build 0)  -->
<!DOCTYPE svg PUBLIC "-//W3C//DTD SVG 1.0//EN" "http://www.w3.org/TR/2001/REC-SVG-20010904/DTD/svg10.dtd">
<svg version="1.0" id="Layer_1" xmlns="http://www.w3.org/2000/svg" xmlns:xlink="http://www.w3.org/1999/xlink" x="0px" y="0px"
	 width="1500px" height="1500px" viewBox="0 0 1500 1500" enable-background="new 0 0 1500 1500" xml:space="preserve">
<g id="SIDES">
	
		<path id="OTL" fill-rule="evenodd" clip-rule="evenodd" stroke="#000000" stroke-width="4" stroke-linecap="round" stroke-linejoin="round" stroke-miterlimit="10" d="
		M443.142,607.541c-6.009,0.123-10.829-3.401-15.844-5.764c-20.522-9.67-41.29-18.803-61.862-28.363
		c-15.512-7.209-31.229-13.979-46.747-21.174c-3.516-1.629-6.829-3.277-10.781-3.801c-2.767-0.368-4.318-3.418-7.001-4.629
		c-6.991-3.154-14.391-5.533-20.629-10.215L281,529.49c5.047-12.254,10.973-24.164,18.41-35.243c1.678-2.501,3.365-2.685,5.67-1.364
		c5.152,2.955,10.111,6.322,15.482,8.811c12.738,5.896,24.083,14.168,36.347,20.89c12.364,6.773,24.463,14.126,36.669,21.233
		c19.446,11.32,39.109,22.273,58.447,33.785c1.635,0.973,3.162,2.125,4.723,3.183c0.012,3.463-1.672,6.311-3.385,8.924
		c-3.543,5.403-5.67,11.542-9.231,16.934L443.142,607.541z"/>
	
		<path id="OLEFT" fill-rule="evenodd" clip-rule="evenodd" stroke="#000000" stroke-width="4" stroke-linecap="round" stroke-linejoin="round" stroke-miterlimit="10" d="
		M512.002,929.941c-9.119-11.804-17.27-24.328-24.285-37.451c-11.275-21.09-20.268-43.203-26.288-66.403
		c-6.089-23.462-9.299-47.356-9.849-71.596c-0.266-11.739,0.66-23.413,1.722-35.11c0.931-10.236,2.462-20.354,4.429-30.393
		c2.678-13.687,6.914-26.982,11.116-40.275c1.915-6.061,2.233-6.229-4.204-8.814c-15.674-6.289-31.467-12.283-47.246-18.309
		c-28.688-10.955-57.494-21.619-86.063-32.883c-11.496-4.531-23.771-7.337-34.148-14.482c-0.616-0.425-1.05-0.337-1.464-0.337
		c-3.481,0.007-6.672-1.201-9.816-2.411c-18.119-6.964-36.068-14.402-54.395-20.758l-5.053-0.742
		c-4.724,7.693-6.945,16.422-9.704,24.844c-6.231,19.031-11.501,38.372-15.51,58.004c-2.911,14.247-5.456,28.561-7.178,43.033
		c-1.614,13.549-2.818,27.102-3.808,40.717c-1.463,20.141-0.949,40.278-0.506,60.376c0.281,12.778,1.801,25.617,3.289,38.403
		c2.402,20.646,5.905,41.056,10.528,61.276c9.194,40.204,22.851,78.884,40.682,116.069c16.181,33.742,35.801,65.406,58.084,95.431
		c1.81,2.438,3.733,4.985,6.491,6.599l0.914-0.037c7.666-4.423,14.049-10.587,21.068-15.891
		c7.543-5.701,15.334-11.141,22.377-17.413c6.689-5.959,14.406-10.418,21.264-16.143c16.527-13.8,33.4-27.206,50.496-40.3
		c15.536-11.898,30.844-24.083,46.268-36.119c13.483-10.523,27.064-20.918,40.322-31.733
		C514.777,934.447,514.216,932.807,512.002,929.941z M270.92,679.613c0.911-11.894,3.715-23.459,6.068-35.104
		c1.666-8.23,3.889-16.309,6.332-24.333l0.701,1.403c0.936,0,1.922-0.195,2.799,0.031c9.529,2.447,19.068,4.859,28.551,7.478
		c21.235,5.862,42.432,11.859,63.656,17.755c13.091,3.635,26.172,7.316,39.34,10.652l5.586,3.396c0,0.78,0.121,1.582-0.019,2.336
		c-2.284,12.49-5.865,24.729-7.101,37.434c-0.232,2.407-2.117,3.998-5.052,3.801c-2.983-0.203-5.987-0.65-8.862-1.141
		c-12.756-2.172-25.615-3.599-38.423-5.301c-12.92-1.719-25.87-3.348-38.806-4.983c-16.237-2.052-32.421-4.562-48.689-6.41
		C272.326,686.096,270.577,684.062,270.92,679.613z M245.805,791.47c0.122-4.606-1.32-8.994-1.164-13.581
		c0.117-3.416-0.025-6.851-0.295-10.302c-1.002-12.771-1.111-25.594,0.006-38.358c0.438-5.008,0.553-6.938,6.879-5.904
		c8.279,1.352,16.586,0.738,24.857,1.4c12.895,1.027,25.877,1.523,38.826,2.053c10.782,0.444,21.531,1.398,32.293,1.828
		c13.27,0.531,26.514,1.574,39.777,1.869c7.355,0.163,14.623,1.553,21.996,1.137c1.07-0.06,2.181,0.573,3.273,0.885v0.468
		c0.9,1.272,0.905,2.725,0.953,4.212c0.361,11.232-0.886,22.5,0.873,33.704c0.313,1.979,0.099,4.05,0.031,6.076
		c-0.086,2.669-1.535,4.007-4.197,4.225c-10.613,0.864-21.183,2.192-31.817,2.909c-4.052,0.272-8.18,0.338-12.155,0.951
		c-8.248,1.268-16.557,1.828-24.835,2.564c-8.407,0.748-16.872,1.301-25.237,2.199c-11.39,1.225-22.807,2.32-34.205,3.359
		c-10.25,0.936-20.51,2.133-30.868,2.285C247.023,795.504,245.74,793.898,245.805,791.47z M275.123,901.889
		c-6.195,1.932-7.098,1.383-8.876-4.658c-2.513-8.533-4.798-17.127-7.096-25.721c-2.736-10.219-4.623-20.609-6.901-30.918
		c-1.113-5.037,0.473-7.389,5.104-7.854c2.22-0.223,4.364-0.75,6.549-0.984c12.596-1.342,24.962-4.055,37.432-6.146
		c17.174-2.884,34.32-5.919,51.484-8.867c13.724-2.359,27.453-4.693,41.184-7.02c7.462-1.265,14.793-3.434,22.463-3.28h0.468
		c1.339,2.321,1.88,4.868,2.376,7.481c2.042,10.754,4.641,21.369,7.85,31.853c1.793,5.849,0.529,7.558-5.072,9.351
		c-28.714,9.178-57.401,18.43-86.121,27.587C315.706,889.17,295.421,895.556,275.123,901.889z M458.152,926.77
		c-8.565,5.596-17.469,10.616-26.225,15.891c-24.703,14.885-49.316,29.917-73.961,44.898c-5.625,3.418-11.063,7.195-16.904,10.188
		c-4.656,2.387-5.527,2.691-8.288-1.814c-8.209-13.402-15.706-27.222-22.015-41.63c-1.912-4.366-5.08-8.367-4.742-13.546l3.73-3.287
		c0.424-0.484,0.966-0.299,1.406-0.482c12.494-5.271,24.977-10.57,37.449-15.889c24.496-10.442,48.951-20.984,73.504-31.29
		c5.625-2.361,10.863-5.979,17.29-6.147l0.901,0.487c6.855,11.925,11.954,24.773,19.213,36.491
		C461.014,923.065,460.896,924.977,458.152,926.77z"/>
	
		<path id="OB" fill-rule="evenodd" clip-rule="evenodd" stroke="#000000" stroke-width="4" stroke-linecap="round" stroke-linejoin="round" stroke-miterlimit="10" d="
		M703.35,1280.991c3.695,0.914,7.372,2.034,11.23,1.858c8.142-0.369,16.189,1.619,24.337,0.942c1.764-0.146,3.094,1.032,4.681,1.412
		h14.508c1.299-0.785,2.629-1.53,4.21-1.396c7.843,0.669,15.586-1.332,23.396-0.877c3.387,0.198,6.489-1.073,9.829-1.139
		c2.675-0.052,3.51-2.53,3.258-5.01c-0.445-4.361-0.548-8.787-1.102-13.083c-0.706-5.461-1.21-10.944-1.582-16.411
		c-0.328-4.803-2.446-9.75,0.366-14.502c-2.534-3.206-1.667-7.179-2.546-10.711c-1.169-4.703-0.935-9.47-1.395-14.117
		c-0.841-8.542-1.415-17.17-2.338-25.693c-1.213-11.234-2.074-22.51-3.337-33.74c-0.938-8.359-2.039-16.789-2.036-25.25
		c0-2.875-0.797-5.614-1.154-8.402c-0.536-4.16-4.506-3.744-7.298-3.191c-7.799,1.543-15.62,0.555-23.422,0.795
		c-5.923,0.181-11.854,0.081-17.783,0.017c-3.138-0.034-6.216-0.053-9.39-0.788c-6.115-1.418-8.892,1.314-9.359,7.825
		c-0.832,11.552-1.586,23.118-2.855,34.626c-1.102,9.975-1.622,20.008-2.865,29.943c-1.426,11.377-1.818,22.841-3.473,34.201
		c-0.674,4.629-0.191,9.273-2.746,13.668c-0.826,1.422,0.975,3.993,0.941,6.439c-0.123,9.264-1.369,18.434-2.321,27.583
		c-0.528,5.079,0.114,10.239-1.159,15.234"/>
	
		<path id="ORIGHT" fill-rule="evenodd" clip-rule="evenodd" stroke="#000000" stroke-width="4" stroke-linecap="round" stroke-linejoin="round" stroke-miterlimit="10" d="
		M1309.115,695.506c-0.99-9.348-1.863-18.756-3.193-28.031c-1.638-11.45-3.885-22.852-6.252-34.213
		c-5.581-26.773-13.274-52.912-22.591-78.592c-2.104-5.795-3.079-5.99-8.859-3.768c-11.842,4.558-23.892,8.635-35.511,13.703
		c-11.531,5.028-23.584,8.539-35.232,13.25c-31.901,12.904-64.201,24.824-96.322,37.182c-21.85,8.404-43.86,16.385-65.52,25.279
		c-5.552,2.281-5.701,2.939-3.765,8.413c11.095,31.336,16.957,63.618,17.314,96.87c0.111,10.162-0.463,20.285-1.254,30.431
		c-1.061,13.601-3.202,26.979-6.24,40.233c-8.569,37.441-23.537,72.037-45.703,103.531c-3.229,4.583-7.38,8.768-9.252,14.611
		c7.74,7.904,16.975,13.959,25.529,20.811c15.003,12.021,30.229,23.759,45.36,35.615s30.258,23.721,45.398,35.564
		c8.309,6.502,16.819,12.75,24.785,19.68l4.201,3.479c2.979,1.418,4.664,3.123,7.02,4.963
		c14.877,11.625,29.543,23.525,44.537,34.998c8.347,6.385,7.594,8.023,14.974-1.772c13.857-18.397,26.394-37.597,38.03-57.499
		c12.381-21.175,23.168-43.047,32.549-65.636c12.398-29.858,22.134-60.567,29.142-92.161c3.067-13.822,5.663-27.717,7.743-41.69
		c1.359-9.129,2.142-18.378,3.132-27.573c1.307-12.162,2.095-24.361,2.446-36.527
		C1312.271,742.918,1311.623,719.191,1309.115,695.506z M1082.911,657.662c22.427-6.365,44.909-12.542,67.38-18.762
		c19.805-5.481,39.621-10.934,59.435-16.38c7.271-1.998,8.314-1.202,10.336,6.069c3.431,12.347,6.012,24.895,8.197,37.482
		c1.031,5.937,3.208,11.977,1.591,18.221l0.935,0.701c-15.018,2.926-30.27,4.18-45.378,6.426
		c-12.791,1.899-25.611,3.616-38.417,5.327c-12.917,1.729-25.846,3.507-38.801,5.021c-5.771,0.674-11.66,1.051-17.353,2.588
		c-1.462,0.395-3.146,0.186-4.664-0.407l-0.574-0.435c-3.747-11.943-4.526-24.52-7.872-36.531
		C1075.979,660.719,1075.563,659.745,1082.911,657.662z M1193.768,947.283c-8.716,17.025-16.093,34.798-27.211,50.489l-1.292,1.952
		c-2.751,0.092-4.834-1.471-7.022-2.803c-21.524-13.113-43.031-26.25-64.588-39.307c-18.149-10.989-36.583-21.512-54.592-33.332
		l1.248,0.092c1.022-5.473,4.477-9.799,7.104-14.458c4.4-7.798,7.576-16.187,12.047-23.936c1.175-2.032,2.212-2.591,4.746-1.985
		c5.147,1.236,9.697,3.749,14.467,5.773c36.99,15.711,73.96,31.475,110.921,47.254
		C1195.818,939.678,1196.712,941.528,1193.768,947.283z M1248.043,842.933c-3.832,18.615-8.042,37.151-14.007,55.226
		c-1.942,5.882-2.572,5.779-7.896,4.106c-15.155-4.761-30.267-9.661-45.419-14.435c-23.76-7.486-47.493-15.072-71.124-22.961
		c-11.883-3.969-24.202-6.708-35.561-12.166l-0.97-0.867c0.141-1.562-0.041-3.088,0.41-4.696c2.874-10.2,5.593-20.432,7.629-30.855
		c1.966-10.056,2.312-10.325,12.542-8.829c13.775,2.018,27.475,4.576,41.194,6.949c9.68,1.674,19.339,3.459,29.019,5.132
		c13.723,2.373,27.46,4.676,41.183,7.031c11.704,2.011,23.373,4.23,35.112,6.017
		C1247.706,833.733,1249.575,835.497,1248.043,842.933z M1255.537,787.251c-0.167,7.103-2.675,10.136-7.397,8.754
		c-4.679-1.366-9.469-1.078-14.101-1.472c-11.848-1.007-23.643-2.623-35.537-3.227c-3.882-0.195-7.887-0.217-11.687-0.896
		c-8.232-1.477-16.556-1.85-24.838-2.576c-8.405-0.74-16.857-1.354-25.242-2.177c-12.791-1.257-25.582-2.501-38.391-3.586
		c-2.827-0.24-5.607-1.028-8.432-1.333c-2.47-0.267-2.798-1.574-2.865-3.779c-0.396-13.273,1.919-26.487,0.615-39.791
		c-0.431-4.395,0.984-5.445,5.531-5.593c3.454-0.112,6.92-0.671,10.301-0.773c12.812-0.393,25.582-1.392,38.373-1.944
		c11.402-0.492,22.781-1.319,34.169-1.835c12.483-0.565,24.958-1.491,37.436-1.852c9.677-0.278,19.307-1.718,29.016-1.155
		c1.538,0.089,3.117-0.567,4.676-0.881h0.469c8.244,0,8.892,0.65,8.892,8.893c0,7.801-0.231,15.608,0.059,23.398
		C1256.976,766.069,1255.783,776.64,1255.537,787.251z"/>
	
		<path id="OTR" fill-rule="evenodd" clip-rule="evenodd" stroke="#000000" stroke-width="4" stroke-linecap="round" stroke-linejoin="round" stroke-miterlimit="10" d="
		M1045.619,585.482c2.309,6.023,5.268,11.943,8.886,17.271l3.12,4.787c2.326,0.193,4.503-0.524,6.536-1.438
		c8.15-3.662,16.242-7.452,24.352-11.198c12.48-5.77,24.938-11.598,37.447-17.301c12.135-5.531,24.542-10.516,36.437-16.513
		c12.173-6.135,25.386-9.964,37.096-17.095c1.011-0.613,2.508-1.021,3.636-1.594c5.786-2.938,12.366-4.327,17.361-8.807l0.05-1.889
		c-3.135-9.955-8.657-18.773-13.295-27.992c-1.983-3.947-3.624-8.377-7.348-11.302l-4.553,0.8
		c-6.281,2.377-11.971,6.557-17.88,10.017c-18.885,11.062-37.767,22.137-56.733,33.046c-19.623,11.286-39.369,22.363-58.881,33.846
		c-6.041,3.556-12.832,5.943-17.798,11.211L1045.619,585.482z"/>
	
		<path id="CB" fill-rule="evenodd" clip-rule="evenodd" stroke="#000000" stroke-width="4" stroke-linecap="round" stroke-linejoin="round" stroke-miterlimit="10" d="
		M956.067,1001.129c-3.284,5.76-9.1,8.901-14.153,12.473c-15.841,11.188-32.37,21.348-49.96,29.65
		c-25.582,12.072-52.178,21.065-80.03,26.201c-12.542,2.313-25.151,3.834-37.89,4.884c-13.919,1.149-27.831,1.112-41.657,0.486
		c-14.105-0.642-28.177-2.542-42.166-5.185c-20.035-3.785-39.512-9.178-58.461-16.576c-27.288-10.654-52.838-24.493-76.272-42.129
		c-3.188-2.398-6.401-4.771-9.462-7.363c-2.326-1.973-2.18-3.94-0.787-5.668c7.512-9.311,15.224-18.458,22.869-27.662
		c2.494-3.002,5.08-1.916,7.472,0.02c10.716,8.654,22.198,16.096,34.125,23.006c18.718,10.847,38.367,19.336,59.016,25.672
		c15.779,4.84,31.905,8.401,48.235,10.025c15.797,1.574,31.678,3.098,47.737,1.441c8.52-0.875,17.203-1.068,25.696-2.271
		c11.194-1.584,22.298-3.859,33.261-6.824c20.156-5.453,39.513-12.916,57.993-22.564c15.352-8.014,29.657-17.713,43.559-28.02
		c4.57-3.389,4.726-3.377,8.396,0.934c7.77,9.134,15.812,18.04,22.523,28.036L956.067,1001.129z"/>
</g>
</svg>
