<?xml version="1.0" encoding="utf-8"?>
<!-- Generator: Adobe Illustrator 16.0.0, SVG Export Plug-In . SVG Version: 6.00 Build 0)  -->
<!DOCTYPE svg PUBLIC "-//W3C//DTD SVG 1.0//EN" "http://www.w3.org/TR/2001/REC-SVG-20010904/DTD/svg10.dtd">
<svg version="1.0" id="Layer_1" xmlns="http://www.w3.org/2000/svg" xmlns:xlink="http://www.w3.org/1999/xlink" x="0px" y="0px"
	 width="1500px" height="1500px" viewBox="0 0 1500 1500" enable-background="new 0 0 1500 1500" xml:space="preserve">
<g id="CENTER_1_">
	
		<path id="CT" fill-rule="evenodd" clip-rule="evenodd" stroke="#000000" stroke-width="4" stroke-linecap="round" stroke-linejoin="round" stroke-miterlimit="10" d="
		M869.521,676.246c-28.699-42.861-68.165-67.021-119.84-67.016c-51.669,0.004-91.156,24.13-119.803,66.918l-0.474-0.748
		c-4.968-1.693-9.1-4.896-13.618-7.402l-7.91-5.703c0.035-2.181,1.363-3.977,2.43-5.555c16.286-24.145,37.205-43.311,63.131-56.609
		c24.295-12.463,50.248-18.563,77.648-18.375c9.78,0.066,19.424,1.16,29.013,2.869c18.589,3.316,36,9.865,52.427,19.157
		c17.06,9.65,31.658,22.271,44.391,37.038c5.657,6.557,11.496,13.111,14.569,21.475l-7.91,5.703
		c-4.518,2.506-8.651,5.709-13.62,7.402L869.521,676.246z"/>
	
		<path id="C4" fill-rule="evenodd" clip-rule="evenodd" stroke="#000000" stroke-width="4" stroke-linecap="round" stroke-linejoin="round" stroke-miterlimit="10" d="
		M528.318,804.1c10.518-0.426,20.223-4.605,30.399-6.648c5.321-1.071,5.848-2.867,4.729-8.332
		c-2.432-11.885-4.301-23.864-4.192-36.031c0.063-7.021-0.214-14.02,0.688-21.086c0.796-6.234,1.39-12.508,2.563-18.689
		c3.789-19.982,10.492-38.849,20.434-56.708c6.611-11.883,14.222-22.922,23.09-33.13c10.421-11.994,22.273-22.443,34.99-31.962
		l1.49-1.757c-5.822-10.97-13.033-20.978-20.406-30.756c-7.131,1.955-11.621,6.777-16.494,10.722
		c-21.796,17.64-40.006,38.581-54.256,62.685c-13.629,23.056-22.724,48.045-27.596,74.373c-2.991,16.176-4.633,32.629-3.76,49.112
		c0.764,14.456,2.283,28.876,5.41,43.083L528.318,804.1z"/>
	
		<path id="C3" fill-rule="evenodd" clip-rule="evenodd" stroke="#000000" stroke-width="4" stroke-linecap="round" stroke-linejoin="round" stroke-miterlimit="10" d="
		M561.8,848.435c6.175,12.511,14.179,23.937,23.033,34.849c13.998,17.25,30.317,31.729,48.791,43.89
		c20.187,13.289,42.152,22.593,65.542,28.448c4.852,1.215,9.881,2.031,14.912,2.712c4.102,0.557,5.498-1.427,5.99-4.03
		c1.314-6.947,1.965-14.021,2.946-21.035c1.049-7.492,2.171-14.977,3.271-22.461c0.117-0.787,0.389-1.557,0.451-2.343
		c0.482-6.035,0.184-6.224-6.065-7.512c-23.444-4.831-44.958-14.097-64.106-28.546c-17.09-12.895-30.979-28.7-41.538-47.318
		c-1.032-1.82-2.536-3.178-3.58-4.975c-1.497-2.574-4.471-0.883-6.329,0c-8.378,3.98-16.578,8.335-24.854,12.53
		c-4.667,2.366-9.343,4.716-14.044,7.013c-2.252,1.1-4.369,2.357-6.077,4.225L561.8,848.435z"/>
	
		<path id="C2" fill-rule="evenodd" clip-rule="evenodd" stroke="#000000" stroke-width="4" stroke-linecap="round" stroke-linejoin="round" stroke-miterlimit="10" d="
		M889.613,818.141c2.101-0.061,3.791,0.943,5.646,1.806c13.031,6.071,25.605,13.084,38.813,18.792
		c2.089,0.904,4.034,2.057,5.616,3.737l-1.547,4.61c-10.857,22.432-26.203,41.655-44.391,58.489
		c-16.348,15.128-34.778,27.407-55.16,36.563c-16.922,7.602-34.295,13.692-52.854,16.08c-3.835,0.494-5.074-0.876-5.604-3.896
		c-1.339-7.629-2.924-15.243-3.665-22.937c-0.782-8.139-2.563-16.122-3.149-24.31c-0.305-4.225,1.415-5.486,4.456-6.045
		c16.898-3.104,32.722-9.125,47.716-17.385c15.788-8.697,29.259-20.223,41.229-33.647c8.435-9.458,14.561-20.454,21.557-30.878
		L889.613,818.141z"/>
	
		<path id="C1" fill-rule="evenodd" clip-rule="evenodd" stroke="#000000" stroke-width="4" stroke-linecap="round" stroke-linejoin="round" stroke-miterlimit="10" d="
		M935.943,797.082c0.255-1.395,0.126-2.794,0.357-4.232c1.764-10.887,3.894-21.779,4.582-32.754
		c0.542-8.664,0.434-17.43-0.489-26.221c-0.955-9.123-2.007-18.182-4.002-27.113c-7.049-31.542-21.396-59.409-42.58-83.766
		c-10.286-11.825-22.043-22.044-34.532-31.48l-1.491-1.76c1.342-3.838,3.776-7.057,6.123-10.267
		c4.937-6.749,8.244-14.713,14.938-20.153l4.078,1.631c6.091,3.559,11.654,8.189,16.928,12.938
		c17.229,15.505,32.675,32.555,45.029,52.325c13.816,22.104,23.754,45.737,29.432,71.168c2.789,12.487,4.295,25.113,5.408,37.884
		c0.964,11.029,0.354,21.896-0.393,32.773c-0.791,11.508-2.599,22.949-5.467,34.178c-0.97,3.793-2.815,5.477-7.052,4.27
		c-10.157-2.9-20.766-4.277-30.381-8.996c-0.882-0.434-1.304-0.088-1.893,0.275"/>
	
		<path id="C0" fill-rule="evenodd" clip-rule="evenodd" stroke="#000000" stroke-width="4" stroke-linecap="round" stroke-linejoin="round" stroke-miterlimit="10" d="
		M810.521,559.336c5.44-1.034,7.497-4.896,8.979-9.801c2.484-8.209,5.502-16.26,8.35-24.359c1.359-3.87,0.056-7.07-3.762-8.412
		c-10.063-3.535-20.435-6.043-30.899-7.883c-17.153-3.015-34.491-4.529-51.929-3.791c-18.849,0.799-37.441,3.535-55.688,8.405
		c-3.477,0.929-6.873,2.155-10.303,3.255c-5.136,1.646-6.328,3.91-4.679,8.891c3.07,9.276,6.257,18.512,9.835,27.607
		c2.078,5.285,5.733,6.847,11.229,5.171c12.827-3.911,25.919-6.261,39.288-7.675c10.492-1.109,20.971-1.131,31.363-0.574
		c15.401,0.826,30.636,3.451,45.416,8.202L810.521,559.336z"/>
</g>
</svg>
